<svg width="359" height="495" viewBox="0 0 359 495" fill="none" xmlns="http://www.w3.org/2000/svg">
<rect width="138.671" height="138.671" transform="matrix(0.929714 -0.368283 0.396992 0.917822 136.472 89.2883)" fill="#FF3880"/>
<rect width="91.4279" height="87.7536" transform="matrix(0.929714 -0.368283 0.396992 0.917822 159.418 128.699)" fill="#AE2154" fill-opacity="0.54"/>
<path d="M123.866 119.223C145.798 169.811 158.094 198.174 180.026 248.762L308.8 197.99L242.093 359.036L113.128 410.268L56.393 282.117L123.866 119.223Z" fill="#9B35EB"/>
<path d="M112.152 409.918L178.94 248.678L308.8 197.99L241.448 360.593L112.152 409.918Z" fill="#7032A2"/>
<path d="M93.3016 456.175L81.5667 420.466L126.85 439.223L93.3016 456.175Z" fill="#FFF7FB"/>
<path d="M184.691 235.338L128.665 107.637L131.902 99.8212L187.548 228.442L315.539 175.886L312.301 183.702L184.691 235.338Z" fill="#B31F78"/>
</svg>
